<svg width="64" height="25" viewBox="0 0 64 25" fill="none" xmlns="http://www.w3.org/2000/svg">
<path d="M16.2476 13.357C16.2476 13.6493 16.2592 13.9833 16.2837 14.3589C16.3078 14.7341 16.3735 15.0917 16.4829 15.4331C16.5933 15.7734 16.7621 16.0586 16.9917 16.2906C17.2231 16.5209 17.5554 16.6333 17.9907 16.6333C18.1671 16.6333 18.3463 16.566 18.521 16.4712V5.5347H21.9116V7.30521C22.1773 7.02034 22.5155 6.78136 22.9243 6.58548C23.3302 6.38827 23.8273 6.2906 24.4087 6.29056C24.941 6.29056 25.4479 6.39349 25.9272 6.59818C26.4046 6.80225 26.8295 7.12713 27.1978 7.57669C27.5667 8.02563 27.8615 8.61928 28.0806 9.35794C28.3023 10.098 28.4116 10.9965 28.4116 12.0503C28.4116 12.8052 28.3444 13.5609 28.2114 14.3159C28.0776 15.0718 27.8471 15.7485 27.5161 16.3462C27.1855 16.9438 26.7432 17.4297 26.187 17.7974C25.6277 18.1678 24.9344 18.3521 24.1011 18.3521C23.5044 18.352 23.0342 18.2695 22.689 18.104C22.3431 17.94 22.0835 17.7471 21.9116 17.5259V23.2632L18.521 24.1118V18.9136C17.8607 19.2571 17.2983 19.3178 17.2749 19.3199C17.0393 19.3747 16.7931 19.4029 16.5376 19.4029C15.7874 19.4029 15.1075 19.1412 14.5024 18.6187C13.8953 18.0978 13.4867 17.2179 13.2681 15.98C12.9056 16.9248 12.3098 17.7344 11.4878 18.4009C10.6642 19.0698 9.67033 19.4029 8.50732 19.4029C7.78212 19.4028 7.04802 19.2495 6.31006 18.9478C5.5709 18.6441 4.91302 18.163 4.33154 17.5083C3.74972 16.8532 3.27133 16.0037 2.89502 14.9605C2.5196 13.9168 2.33254 12.6531 2.33252 11.1724C2.33252 10.0302 2.46126 8.84831 2.71338 7.62161C2.96832 6.39524 3.36777 5.27891 3.91357 4.272C4.45768 3.26518 5.1651 2.43144 6.03857 1.77591C6.91213 1.12 7.95109 0.794499 9.1626 0.794464C9.79271 0.794464 10.4394 0.925343 11.106 1.18509C11.7716 1.44936 12.6167 2.10306 12.6167 2.10306V0.789581H16.2476V13.357ZM32.6743 7.30521C32.9387 7.02036 33.2779 6.78134 33.686 6.58548C34.0938 6.38825 34.5888 6.29056 35.1704 6.29056C35.702 6.29061 36.2093 6.39348 36.689 6.59818C37.1672 6.80224 37.5896 7.12711 37.9595 7.57669C38.3275 8.02566 38.6234 8.6192 38.8433 9.35794C39.063 10.098 39.1714 10.9965 39.1714 12.0503C39.1714 12.8052 39.1055 13.5609 38.9722 14.3159C38.8385 15.0717 38.6064 15.7486 38.2778 16.3462C37.948 16.9438 37.5027 17.4297 36.9468 17.7974C36.3894 18.1678 35.6946 18.3521 34.8638 18.3521C34.2672 18.3521 33.7964 18.2695 33.4507 18.104C33.1049 17.94 32.8453 17.7472 32.6743 17.5259V23.2632L29.2827 24.1118V5.5347H32.6743V7.30521ZM60.6831 6.29251C60.9814 6.29254 61.2524 6.35548 61.4956 6.48099C61.7384 6.60535 61.9514 6.77248 62.1323 6.97708C62.312 7.18202 62.4529 7.40601 62.5542 7.64896C62.6577 7.89415 62.7085 8.14218 62.7085 8.3931C62.7085 8.73855 62.6027 9.05828 62.3901 9.34818C62.1781 9.64067 61.829 9.78565 61.3442 9.78568C60.9816 9.78568 60.7307 9.70792 60.5894 9.54935C60.4485 9.39312 60.3366 9.22276 60.2593 9.04251C60.1806 8.86136 60.0976 8.69266 60.0112 8.53568C59.9247 8.37781 59.7723 8.29935 59.5532 8.29935C59.3173 8.29935 59.0861 8.38911 58.8589 8.57181C58.6313 8.7514 58.3915 8.97487 58.1401 9.24173V17.437L54.7485 19.3755V16.0874C54.5135 16.4104 54.2498 16.7119 53.9507 16.9859C53.5055 17.3957 52.9823 17.7253 52.3853 17.9781C51.7871 18.2272 51.0895 18.355 50.2886 18.355C49.6148 18.355 48.993 18.2527 48.4272 18.0474C47.8626 17.843 47.3733 17.5251 46.9575 17.0923C46.8268 16.9569 46.7114 16.805 46.6011 16.6441C46.4176 16.9422 46.152 17.2882 45.7339 17.6314C45.3525 17.9225 44.9632 18.1168 44.5679 18.2076C44.159 18.3024 43.7978 18.3501 43.4819 18.3501C42.2743 18.35 41.4263 18.0143 40.9399 17.3462C40.4544 16.6781 40.2105 15.7926 40.2104 14.6909V6.40482H43.6021V14.4322C43.6021 15.0931 43.6922 15.5313 43.8735 15.7427C44.0534 15.9536 44.3729 16.0591 44.8267 16.0591C45.0387 16.0591 45.2349 16.0157 45.4146 15.9302C45.4779 15.8952 45.5411 15.8586 45.6021 15.8208C45.7344 15.7304 45.8675 15.5853 45.9985 15.4117C45.9659 15.3196 45.9455 15.2646 45.9438 15.2593C45.7497 14.6069 45.6499 13.8363 45.6499 12.9497C45.6499 12.2752 45.7254 11.5441 45.8735 10.7661C46.023 9.98672 46.2864 9.26712 46.6626 8.60599C47.0392 7.94506 47.5501 7.39401 48.1929 6.95267C48.8365 6.51429 49.6534 6.29257 50.6411 6.29251C51.3949 6.29256 51.9757 6.40961 52.3853 6.64603C52.793 6.88212 53.0953 7.15754 53.2925 7.47318C53.488 7.7876 53.6065 8.09499 53.645 8.3931C53.684 8.69199 53.7026 8.90364 53.7026 9.02982C53.7026 9.7374 53.5753 10.3601 53.314 10.8941C53.0555 11.4305 52.7104 11.8842 52.2788 12.2525C51.8469 12.6233 51.3518 12.9053 50.7944 13.1021C50.2374 13.2988 49.6692 13.4131 49.0884 13.4439C49.1039 14.4983 49.2794 15.2505 49.6177 15.6997C49.9554 16.1466 50.548 16.3725 51.395 16.3726C51.8665 16.3725 52.2831 16.309 52.644 16.1812C53.0038 16.0572 53.3276 15.8875 53.6099 15.6753C53.8913 15.4624 54.1516 15.2107 54.3862 14.9204C54.5105 14.7676 54.6297 14.6061 54.7485 14.4409V6.4097H58.1401V7.87454C58.4859 7.46491 58.8688 7.09929 59.2925 6.77493C59.7186 6.45463 60.1811 6.29251 60.6831 6.29251ZM10.4448 2.86282C9.68102 2.86282 9.03594 3.11935 8.51221 3.63528C7.98461 4.15166 7.55641 4.80615 7.22412 5.59622C6.88931 6.38874 6.64478 7.26838 6.48975 8.24075C6.33527 9.2105 6.25637 10.1406 6.25635 11.0269C6.25635 12.97 6.55384 14.3736 7.15088 15.2378C7.74814 16.0999 8.47668 16.5318 9.3335 16.5318C9.78759 16.5318 10.2174 16.4255 10.6226 16.2095C11.0289 15.9943 11.3805 15.7056 11.6812 15.3462C11.977 14.9869 12.2089 14.5716 12.3774 14.105C12.5447 13.6377 12.6294 13.1397 12.6294 12.6118V4.40872C12.4602 4.00077 12.2096 3.6398 11.8774 3.32864C11.5418 3.01916 11.064 2.8629 10.4448 2.86282ZM23.3247 7.99075C23.0415 7.99081 22.7673 8.08865 22.5005 8.28568C22.234 8.48242 22.0375 8.77588 21.9116 9.16946V15.7564C21.988 15.8828 22.1169 16.0038 22.2876 16.1226C22.4602 16.2407 22.689 16.2983 22.9722 16.2984C23.3791 16.2984 23.726 16.1616 24.0063 15.8863C24.2902 15.6109 24.5137 15.2529 24.6812 14.8111C24.8437 14.3726 24.962 13.8793 25.0327 13.3365C25.102 12.7951 25.1372 12.2549 25.1372 11.7183C25.1372 10.8538 25.0637 10.1689 24.9146 9.66556C24.7659 9.16218 24.5885 8.7889 24.3843 8.54446C24.1793 8.30129 23.9807 8.1474 23.7837 8.08353C23.5885 8.02136 23.4348 7.99079 23.3247 7.99075ZM34.0864 7.99075C33.8039 7.99075 33.5287 8.08863 33.2622 8.28568C32.9953 8.4824 32.7982 8.77593 32.6743 9.16946V15.7564C32.7514 15.8828 32.8764 16.0038 33.0503 16.1226C33.2227 16.2406 33.4511 16.2984 33.7329 16.2984C34.1411 16.2983 34.486 16.1614 34.769 15.8863C35.0509 15.6109 35.2745 15.2529 35.4409 14.8111C35.6051 14.3727 35.723 13.8793 35.7935 13.3365C35.8639 12.7951 35.8979 12.2549 35.8979 11.7183C35.8979 10.8538 35.8241 10.1689 35.6743 9.66556C35.5257 9.16229 35.3494 8.78892 35.145 8.54446C34.9432 8.30119 34.7402 8.14741 34.5454 8.08353C34.3482 8.02141 34.1949 7.99082 34.0864 7.99075ZM50.9956 7.56693C50.7274 7.56693 50.4848 7.69757 50.2651 7.95462C50.0461 8.21327 49.8539 8.55846 49.689 8.9888C49.5231 9.41982 49.3911 9.92493 49.2876 10.5025C49.1865 11.0832 49.1187 11.6857 49.0884 12.312C49.4791 12.2811 49.8498 12.1747 50.1929 11.9947C50.5405 11.8135 50.8395 11.5793 51.0903 11.2896C51.3398 10.9996 51.5374 10.6679 51.6792 10.2915C51.8204 9.91598 51.8911 9.50892 51.8911 9.07083C51.8911 8.52193 51.7949 8.13509 51.606 7.90775C51.4195 7.68159 51.2148 7.56711 50.9956 7.56693ZM41.9106 1.29251C42.4894 1.29255 42.9835 1.49926 43.396 1.91068C43.8071 2.32281 44.0122 2.82045 44.0122 3.39896C44.0121 3.97938 43.8071 4.47087 43.396 4.87454C42.9836 5.27822 42.4892 5.47997 41.9106 5.48001C41.3343 5.47993 40.842 5.27821 40.4409 4.87454C40.0363 4.47085 39.8355 3.97943 39.8354 3.39896C39.8354 2.8205 40.0364 2.32279 40.4409 1.91068C40.8421 1.49941 41.3342 1.2926 41.9106 1.29251Z" fill="white"/>
</svg>
